<svg style="object-fit:cover" id="my-svg" version="1" baseProfile="full" width="100%" height="100%" viewBox="0 0 1536 718" xmlns="http://www.w3.org/2000/svg"><rect width="1536" height="718" fill="#000"/><defs><linearGradient id="linear-gradient" x1="0" x2="1" y1="0" y2="1"><stop offset="0%" stop-color="#c81d1190"/><stop offset="100%" stop-color="#1c39bb90"/></linearGradient></defs><path transform="scale(1, 1)" d="M 0,718 V 0,430 C 97.64285714285714,493.82142857142856 195.28571428571428,557.6428571428571 338,550 C 480.7142857142857,542.3571428571429 668.5,463.25 801,466 C 933.5,468.75 1010.7142857142858,553.3571428571429 1124,561 C 1237.2857142857142,568.6428571428571 1386.642857142857,499.32142857142856 1536,430 C 1536,430 1536,718 1536,718 Z" stroke="none" stroke-width="0" fill="url(#linear-gradient)" class="transition-all duration-300 ease-in-out delay-150" style="transform-origin: center center;"/><defs><linearGradient id="linear-gradient" x1="0" x2="1" y1="0" y2="1"><stop offset="0%" stop-color="#c81d11ff"/><stop offset="100%" stop-color="#1c39bbff"/></linearGradient></defs><path transform="scale(1, 1)" d="M 0,718 V 0,646 C 103.57142857142858,580.25 207.14285714285717,514.5 336,551 C 464.85714285714283,587.5 618.9999999999999,726.25 766,751 C 913.0000000000001,775.75 1052.857142857143,686.5 1180,650 C 1307.142857142857,613.5 1421.5714285714284,629.75 1536,646 C 1536,646 1536,718 1536,718 Z" stroke="none" stroke-width="0" fill="url(#linear-gradient)" class="transition-all duration-300 ease-in-out delay-150" style="transform-origin: center center;"/></svg>