<?xml version="1.0" encoding="utf-8"?><svg xmlns="http://www.w3.org/2000/svg" xmlns:xlink="http://www.w3.org/1999/xlink" width="1887" height="750" preserveAspectRatio="xMidYMid" viewBox="0 0 1887 750" style="z-index:1;margin-right:-2px;display:block;background-repeat-y:initial;background-repeat-x:initial;animation-play-state:paused" ><g transform="translate(943.5,375) scale(1,1) translate(-943.5,-375)" style="transform:matrix(1, 0, 0, 1, 0, 0);animation-play-state:paused" ><linearGradient id="lg-0.8293152674416882" x1="0" x2="1" y1="0" y2="0" style="animation-play-state:paused" ><stop stop-color="#ff00ff" offset="0" style="animation-play-state:paused" ></stop>

  
<stop stop-color="#00ffff" offset="1" style="animation-play-state:paused" ></stop></linearGradient>
<path d="M 0 0 L 0 677.706 Q 471.75 476.71 943.5 451.083 T 1887 531.833 L 1887 0 Z" fill="url(#lg-0.8293152674416882)" opacity="0.4" style="opacity:0.4;animation-play-state:paused" ></path>
<path d="M 0 0 L 0 834.886 Q 471.75 594.632 943.5 563.618 T 1887 335.165 L 1887 0 Z" fill="url(#lg-0.8293152674416882)" opacity="0.4" style="opacity:0.4;animation-play-state:paused" ></path>
<path d="M 0 0 L 0 736.628 Q 471.75 765.988 943.5 733.805 T 1887 521.986 L 1887 0 Z" fill="url(#lg-0.8293152674416882)" opacity="0.4" style="opacity:0.4;animation-play-state:paused" ></path>
<path d="M 0 0 L 0 877.749 Q 471.75 542.399 943.5 515.77 T 1887 319.62 L 1887 0 Z" fill="url(#lg-0.8293152674416882)" opacity="0.4" style="opacity:0.4;animation-play-state:paused" ></path>
<path d="M 0 0 L 0 791.017 Q 471.75 627.652 943.5 598.288 T 1887 411.362 L 1887 0 Z" fill="url(#lg-0.8293152674416882)" opacity="0.4" style="opacity:0.4;animation-play-state:paused" ></path>
<path d="M 0 0 L 0 873.766 Q 471.75 480.551 943.5 452.696 T 1887 458.914 L 1887 0 Z" fill="url(#lg-0.8293152674416882)" opacity="0.4" style="opacity:0.4;animation-play-state:paused" ></path>
<path d="M 0 0 L 0 951.783 Q 471.75 759.008 943.5 730.825 T 1887 449.745 L 1887 0 Z" fill="url(#lg-0.8293152674416882)" opacity="0.4" style="opacity:0.4;animation-play-state:paused" ></path>
<path d="M 0 0 L 0 859.638 Q 471.75 724.737 943.5 694.287 T 1887 352.17 L 1887 0 Z" fill="url(#lg-0.8293152674416882)" opacity="0.4" style="opacity:0.4;animation-play-state:paused" ></path></g></svg>